HIERARCHY
ROOT root
{
	OFFSET	0	13.1	24.9
	CHANNELS 6  Xposition Yposition Zposition Xrotation Yrotation Zrotation
	JOINT spine_1
	{
		OFFSET	0	9.99999	0
		CHANNELS 3  Xrotation Yrotation Zrotation
		JOINT spine_2
		{
			OFFSET	0	112	-10
			CHANNELS 3  Xrotation Yrotation Zrotation
			JOINT spine_3
			{
				OFFSET	0	206.5	19.3
				CHANNELS 3  Xrotation Yrotation Zrotation
				JOINT spine_4
				{
					OFFSET	0	110.4	14.6
					CHANNELS 3  Xrotation Yrotation Zrotation
					JOINT neck_1
					{
						OFFSET	0	71.8	-50.3
						CHANNELS 3  Xrotation Yrotation Zrotation
						JOINT neck_2
						{
							OFFSET	0	86.2	-25.8
							CHANNELS 3  Xrotation Yrotation Zrotation
							JOINT head_ee
							{
								OFFSET	0	179.8	-8.7
								CHANNELS 3  Xrotation Yrotation Zrotation
								End Site
								{
									OFFSET	1	0	0
								}
							}
						}
					}
					JOINT left_clavicle
					{
						OFFSET	-43.2	22.4	-70.8
						CHANNELS 3  Xrotation Yrotation Zrotation
						JOINT left_shoulder
						{
							OFFSET	-93.9	-5.79999	48.7
							CHANNELS 3  Xrotation Yrotation Zrotation
							JOINT left_elbow
							{
								OFFSET	-291.4	-30.8	15.2
								CHANNELS 3  Xrotation Yrotation Zrotation
								JOINT left_lowarm_twist
								{
									OFFSET	-110.7	-3.89999	13.6
									CHANNELS 3  Xrotation Yrotation Zrotation
									JOINT left_hand
									{
										OFFSET	-110.7	-3.89999	13.6
										CHANNELS 3  Xrotation Yrotation Zrotation
										JOINT left_ee
										{
											OFFSET	-80.8	-5.10001	12.1
											CHANNELS 3  Xrotation Yrotation Zrotation
											End Site
											{
												OFFSET	1	0	0
											}
										}
									}
								}
							}
						}
					}
					JOINT right_clavicle
					{
						OFFSET	43.2	22.4	-70.8
						CHANNELS 3  Xrotation Yrotation Zrotation
						JOINT right_shoulder
						{
							OFFSET	93.9	-5.79999	48.7
							CHANNELS 3  Xrotation Yrotation Zrotation
							JOINT right_elbow
							{
								OFFSET	291.4	-30.8	15.2
								CHANNELS 3  Xrotation Yrotation Zrotation
								JOINT right_lowarm_twist
								{
									OFFSET	110.7	-3.89999	13.6
									CHANNELS 3  Xrotation Yrotation Zrotation
									JOINT right_hand
									{
										OFFSET	110.7	-3.89999	13.6
										CHANNELS 3  Xrotation Yrotation Zrotation
										JOINT right_ee
										{
											OFFSET	80.8	-5.10001	12.1
											CHANNELS 3  Xrotation Yrotation Zrotation
											End Site
											{
												OFFSET	1	0	0
											}
										}
									}
								}
							}
						}
					}
				}
			}
		}
	}
	JOINT left_hip
	{
		OFFSET	-82.8	-127.5	0.300001
		CHANNELS 3  Xrotation Yrotation Zrotation
		JOINT left_knee
		{
			OFFSET	-28.2	-396.7	2.2
			CHANNELS 3  Xrotation Yrotation Zrotation
			JOINT left_ankle
			{
				OFFSET	-11.7	-411.3	35.4
				CHANNELS 3  Xrotation Yrotation Zrotation
				JOINT left_toes
				{
					OFFSET	0	-60	-88.6
					CHANNELS 3  Xrotation Yrotation Zrotation
					JOINT left_foot_ee
					{
						OFFSET	-22.5	-16.5	-42.2
						CHANNELS 3  Xrotation Yrotation Zrotation
						End Site
						{
							OFFSET	1	0	0
						}
					}
				}
			}
		}
	}
	JOINT right_hip
	{
		OFFSET	82.8	-127.5	0.300001
		CHANNELS 3  Xrotation Yrotation Zrotation
		JOINT right_knee
		{
			OFFSET	28.2	-396.7	2.2
			CHANNELS 3  Xrotation Yrotation Zrotation
			JOINT right_ankle
			{
				OFFSET	11.7	-411.3	35.4
				CHANNELS 3  Xrotation Yrotation Zrotation
				JOINT right_toes
				{
					OFFSET	0	-60	-88.6
					CHANNELS 3  Xrotation Yrotation Zrotation
					JOINT right_foot_ee
					{
						OFFSET	22.5	-16.5	-42.2
						CHANNELS 3  Xrotation Yrotation Zrotation
						End Site
						{
							OFFSET	1	0	0
						}
					}
				}
			}
		}
	}
}
MOTION
Frames: 13
Frame Time: 0.02
3454.61642973 739.232 -1513.41725136 165.084822717 79.5574810964 -165.396885187 -1.27789 0.151702 0.234959 -1.27787 0.136444 0.244136 -1.27725 0.0761055 0.269123 -1.27733 0.117653 0.253726 -14.0418 4.26545 3.92095 -14.0227 5.74611 5.06073 -0.0 0.0 -0.0 0.586103 17.6547 2.96551 -16.9943 -27.5371 69.0884 0.617664 -17.0128 0.0923818 21.8259 0.24593 -2.76039 -0.577975 21.2483 5.12585 -0.0 0.0 -0.0 9.18063 25.6541 -17.0733 4.47081 9.16878 -60.6204 1.03508 27.1458 -0.2499 -15.1681 0.774027 -1.77265 -1.9461 -16.9447 4.98885 0.0 0.0 0.0 6.76951 24.9602 -9.65827 -16.3147 0.321314 2.4746 26.82 -22.7747 -4.05257 -13.2777 0.0 0.0 -0.0 0.0 -0.0 -1.73739 17.9033 -5.47934 -22.4833 -0.257882 -3.41851 41.1482 -1.10282 4.96607 -29.2124 0.0 0.0 0.0 0.0 0.0 
3456.56101201 739.232 -1518.98898572 160.098697446 82.1229050413 -160.347703273 -1.27789 0.151702 0.234959 -1.27787 0.136444 0.244136 -1.27725 0.0761055 0.269123 -1.27733 0.117653 0.253726 -14.0418 4.26545 3.92095 -14.0227 5.74611 5.06073 -0.0 0.0 -0.0 0.586103 17.6547 2.96551 -16.9943 -27.5371 69.0884 0.617664 -17.0128 0.0923818 21.8259 0.24593 -2.76039 -0.577975 21.2483 5.12585 -0.0 0.0 -0.0 9.18063 25.6541 -17.0733 4.47081 9.16878 -60.6204 1.03508 27.1458 -0.2499 -15.1681 0.774027 -1.77265 -1.9461 -16.9447 4.98885 0.0 0.0 0.0 6.76951 24.9602 -9.65827 -16.3147 0.321314 2.4746 26.82 -22.7747 -4.05257 -13.2777 0.0 0.0 -0.0 0.0 -0.0 -1.73739 17.9033 -5.47934 -22.4833 -0.257882 -3.41851 41.1482 -1.10282 4.96607 -29.2124 0.0 0.0 0.0 0.0 0.0 
3457.6630196 739.232 -1521.81934482 156.030284628 83.405989557 -156.246917187 -1.27789 0.151702 0.234959 -1.27787 0.136444 0.244136 -1.27725 0.0761055 0.269123 -1.27733 0.117653 0.253726 -14.0418 4.26545 3.92095 -14.0227 5.74611 5.06073 -0.0 0.0 -0.0 0.586103 17.6547 2.96551 -16.9943 -27.5371 69.0884 0.617664 -17.0128 0.0923818 21.8259 0.24593 -2.76039 -0.577975 21.2483 5.12585 -0.0 0.0 -0.0 9.18063 25.6541 -17.0733 4.47081 9.16878 -60.6204 1.03508 27.1458 -0.2499 -15.1681 0.774027 -1.77265 -1.9461 -16.9447 4.98885 0.0 0.0 0.0 6.76951 24.9602 -9.65827 -16.3147 0.321314 2.4746 26.82 -22.7747 -4.05257 -13.2777 0.0 0.0 -0.0 0.0 -0.0 -1.73739 17.9033 -5.47934 -22.4833 -0.257882 -3.41851 41.1482 -1.10282 4.96607 -29.2124 0.0 0.0 0.0 0.0 0.0 
3458.0781896 739.232 -1522.8359458 154.143661294 83.8593068062 -154.348600541 -1.27789 0.151702 0.234959 -1.27787 0.136444 0.244136 -1.27725 0.0761055 0.269123 -1.27733 0.117653 0.253726 -14.0418 4.26545 3.92095 -14.0227 5.74611 5.06073 -0.0 0.0 -0.0 0.586103 17.6547 2.96551 -16.9943 -27.5371 69.0884 0.617664 -17.0128 0.0923818 21.8259 0.24593 -2.76039 -0.577975 21.2483 5.12585 -0.0 0.0 -0.0 9.18063 25.6541 -17.0733 4.47081 9.16878 -60.6204 1.03508 27.1458 -0.2499 -15.1681 0.774027 -1.77265 -1.9461 -16.9447 4.98885 0.0 0.0 0.0 6.76951 24.9602 -9.65827 -16.3147 0.321314 2.4746 26.82 -22.7747 -4.05257 -13.2777 0.0 0.0 -0.0 0.0 -0.0 -1.73739 17.9033 -5.47934 -22.4833 -0.257882 -3.41851 41.1482 -1.10282 4.96607 -29.2124 0.0 0.0 0.0 0.0 0.0 
3445.52100586 739.817 -1519.17824332 152.097693502 82.5429453021 -152.397959095 -1.57092 0.400587 0.183508 -1.57099 0.388098 0.208626 -1.56957 0.327639 0.294616 -1.5695 0.370056 0.239174 -14.008 3.89341 3.16563 -14.0019 5.49452 4.22658 -0.0 0.0 -0.0 0.161491 17.8018 2.33126 -18.5219 -27.3274 69.4675 0.562636 -15.574 0.0769422 21.8481 0.245641 -2.76323 -0.646943 22.0699 5.05542 -0.0 0.0 -0.0 9.23068 26.0926 -17.1387 6.12702 9.97167 -59.6938 1.14331 29.5246 -0.30128 -15.3633 0.787 -1.79401 -2.03541 -15.7915 6.10142 0.0 0.0 0.0 8.8999 23.1646 -9.21841 -16.9796 0.319369 2.5766 30.9885 -24.8556 -4.6475 -12.0704 0.0 0.0 -0.0 0.0 -0.0 -2.75003 19.5796 -5.309 -24.0486 -0.22565 -3.65654 41.523 0.125104 5.00514 -28.7513 0.0 0.0 0.0 0.0 0.0 
3434.00518627 738.58 -1516.14009334 148.444922295 82.6587405745 -148.892999394 -1.71502 0.62353 0.266778 -1.71518 0.605291 0.305915 -1.71195 0.514519 0.441851 -1.71176 0.577844 0.355047 -12.8507 4.20233 2.22761 -12.8638 6.58739 3.3684 -0.0 0.0 -0.0 -0.337088 17.946 1.58736 -19.9454 -27.2452 70.5005 0.516779 -14.3594 0.0650986 20.9794 0.256104 -2.65275 -0.942393 25.8411 4.91784 -0.0 0.0 -0.0 9.64855 26.4321 -18.0325 8.4801 10.9178 -58.8531 1.31921 33.1629 -0.392825 -16.2803 0.848893 -1.89375 -2.3711 -14.8447 8.66738 0.0 0.0 0.0 15.6092 21.3001 -9.75131 -20.9018 0.283829 3.17722 28.8662 -22.6217 -4.29689 -11.756 0.0 0.0 -0.0 0.0 -0.0 -9.53048 20.1045 -4.56735 -14.5481 -0.320732 -2.20356 40.2719 -1.49116 4.88998 -28.2816 0.0 0.0 0.0 0.0 0.0 
3421.98317386 730.429 -1516.23065501 148.691346426 80.6405966601 -149.199164016 -1.7037 0.432661 0.532131 -1.70363 0.397924 0.558583 -1.69951 0.252858 0.63751 -1.69991 0.350365 0.589578 -13.6629 3.63713 2.24994 -13.6703 5.54514 3.26124 -0.0 0.0 -0.0 -0.550776 18.2377 1.29908 -22.6549 -26.9312 69.703 0.502913 -13.9894 0.0617032 20.7176 0.258929 -2.61943 -1.21844 29.0295 4.74699 -0.0 0.0 -0.0 9.96252 27.3944 -18.6258 10.1651 12.3785 -57.9617 1.56463 37.7756 -0.535352 -16.8886 0.890838 -1.95937 -2.37423 -13.3286 9.45715 0.0 0.0 0.0 18.2075 19.4877 -10.4479 -23.8136 0.230902 3.62087 28.862 -23.0994 -4.31623 -11.1452 0.0 0.0 -0.0 0.0 -0.0 -13.1546 20.1591 -4.85992 -11.0776 -0.295267 -1.67177 40.3451 -0.543708 4.90171 -27.6312 0.0 0.0 0.0 0.0 0.0 
3416.01070347 730.844 -1516.72598648 145.082805172 81.4277307146 -145.386456935 -1.73237 0.50054 0.637214 -1.73226 0.458979 0.667772 -1.72658 0.28569 0.758259 -1.72716 0.401855 0.703628 -13.8516 3.70126 2.34178 -13.859 5.62188 3.37763 -0.0 0.0 -0.0 -0.661856 18.2317 1.12987 -23.616 -26.6428 69.9202 0.472006 -13.1606 0.0544486 20.8379 0.25765 -2.63474 -1.32437 28.9908 4.16132 -0.0 0.0 -0.0 10.0902 27.7319 -18.8718 11.8613 12.5101 -56.9118 1.76539 41.1666 -0.663024 -17.6001 0.940776 -2.03556 -2.50675 -11.8816 11.0449 0.0 0.0 0.0 19.5115 18.616 -10.906 -25.8771 0.179777 3.93338 30.0462 -22.7819 -4.44343 -10.729 0.0 0.0 -0.0 0.0 -0.0 -16.1048 19.8313 -4.11978 -4.9509 -0.171948 -0.740125 39.5698 0.489566 4.84255 -28.4032 0.0 0.0 0.0 0.0 0.0 
3406.66645167 734.105 -1516.26711434 147.043468942 81.0961530928 -147.420266036 -1.84415 0.473951 0.775445 -1.84392 0.423649 0.80403 -1.83749 0.217046 0.882511 -1.8384 0.353693 0.837162 -14.254 3.77375 2.49834 -14.2611 5.68878 3.56911 -0.0 0.0 -0.0 -1.01969 18.2679 0.592225 -24.2672 -26.5975 70.1374 0.460586 -12.8528 0.0518783 20.6901 0.259217 -2.61593 -1.44089 30.0761 4.01466 -0.0 0.0 -0.0 10.1842 27.9178 -19.0601 13.4487 13.3152 -56.1795 1.95629 44.0958 -0.792358 -18.276 0.989089 -2.10736 -2.58326 -10.5366 12.2333 0.0 0.0 0.0 22.3028 17.5502 -11.1635 -26.4063 0.164853 4.01322 29.8099 -21.991 -4.38289 -10.5679 0.0 0.0 -0.0 0.0 -0.0 -19.3218 20.5994 -3.30995 1.67513 0.0725963 0.246788 39.6416 1.19234 4.85483 -28.4398 0.0 0.0 0.0 0.0 0.0 
3399.17385965 731.274 -1512.55366746 149.459105983 80.4271359718 -149.794849197 -1.98396 0.207542 0.942658 -1.98347 0.14714 0.953953 -1.98046 -0.0899117 0.961037 -1.98174 0.0629873 0.963176 -13.3935 3.51387 1.83141 -13.405 5.55477 2.81251 -0.0 0.0 -0.0 -1.01153 18.5096 0.638565 -25.2152 -26.4282 70.69 0.398359 -11.1633 0.0389306 20.5207 0.260952 -2.59437 -1.42993 29.1927 3.68378 -0.0 0.0 -0.0 10.2489 27.2252 -19.2853 16.5362 14.011 -56.6174 2.20102 47.4679 -0.967833 -18.7423 1.02292 -2.15657 -2.64004 -9.40785 13.1883 0.0 0.0 0.0 24.2354 17.0583 -10.647 -26.0601 0.174698 3.96102 28.9444 -21.0128 -4.24269 -10.8796 0.0 0.0 -0.0 0.0 -0.0 -21.23 20.0243 -3.41867 4.27221 0.199357 0.625019 38.1585 -1.60805 4.70392 -29.0313 0.0 0.0 0.0 0.0 0.0 
3384.21205375 721.408 -1504.19126092 152.267845519 79.0781084615 -152.672779572 -1.83849 0.303433 0.906846 -1.83806 0.245115 0.924314 -1.83354 0.014799 0.956145 -1.83478 0.165612 0.941811 -11.2365 2.89149 -0.323585 -11.2504 5.68021 0.464295 -0.0 0.0 -0.0 -1.6032 18.3732 -0.276563 -26.2238 -26.7014 71.6814 0.37314 -10.4727 0.0341973 18.6443 0.275914 -2.35517 -1.5722 29.0712 2.86794 -0.0 0.0 -0.0 10.4645 28.1692 -19.6571 20.1572 15.1357 -55.9297 2.12502 46.4641 -0.912274 -20.0691 1.12136 -2.29506 -3.1869 -10.5355 16.2235 0.0 0.0 0.0 24.3535 15.4521 -9.99152 -24.0873 0.22477 3.66241 25.4873 -17.014 -3.69502 -10.4019 0.0 0.0 -0.0 0.0 -0.0 -22.7645 18.8672 -3.63423 4.23065 0.197193 0.619011 39.0492 -3.49306 4.77637 -25.5905 0.0 0.0 0.0 0.0 0.0 
3373.0327523 714.81 -1497.1405001 151.773723376 78.697865833 -152.091448602 -1.892 0.339724 1.05048 -1.89143 0.272195 1.06996 -1.88559 0.00492785 1.10403 -1.88725 0.179216 1.0894 -12.5294 2.10069 -2.11084 -12.533 5.33054 -1.41393 -0.0 0.0 -0.0 -1.84958 18.4352 -0.639901 -25.8752 -26.3867 72.8585 0.282271 -7.96017 0.0196397 17.6764 0.280568 -2.23163 -1.36964 28.9356 3.89408 -0.0 0.0 -0.0 10.3475 26.1555 -19.6256 23.026 16.6357 -57.2113 2.27058 48.3541 -1.01945 -21.2493 1.21161 -2.41633 -3.85399 -12.6032 19.5152 0.0 0.0 0.0 24.7914 13.9364 -9.31203 -21.0153 0.282189 3.19456 14.3957 -5.23387 -2.06447 -10.2532 0.0 0.0 -0.0 0.0 -0.0 -24.2705 19.6259 -3.47948 4.25029 0.198216 0.621851 39.4325 -7.55098 4.81295 -24.4895 0.0 0.0 0.0 0.0 0.0 
3358.03837966 711.46 -1487.08558168 152.055562923 78.9026640875 -151.950406954 -2.18777 0.348957 1.10135 -2.18714 0.278172 1.12132 -2.1808 -0.00766476 1.15528 -2.18262 0.174874 1.14199 -12.123 1.55018 -3.9716 -12.0935 5.49031 -3.37864 -0.0 0.0 -0.0 -1.7322 18.1953 -0.500599 -25.3739 -25.1435 73.4043 0.200327 -5.6674 0.0099157 15.8729 0.28367 -2.00131 -1.24368 29.3623 4.75391 -0.0 0.0 -0.0 9.98186 24.6718 -18.9602 26.9494 18.6395 -57.2673 2.46162 50.6381 -1.16475 -22.2697 1.29165 -2.51968 -4.53874 -13.5505 23.5964 0.0 0.0 0.0 24.5543 13.5883 -6.82379 -6.80076 0.219678 1.01999 4.35732 4.59767 -0.631711 -11.3815 0.0 0.0 -0.0 0.0 -0.0 -23.8151 19.3224 -3.9897 2.98623 0.134442 0.438437 40.1644 -12.9471 4.91952 -20.9008 0.0 0.0 0.0 0.0 0.0 
